<svg xmlns="http://www.w3.org/2000/svg" data-name="Layer 1" width="176" height="176" style=""><rect id="backgroundrect" width="100%" height="100%" x="0" y="0" fill="none" stroke="none"/><defs><style>.cls-1{fill:#ff6363;fill-rule:evenodd;}</style></defs><title>color_inverted_logomark</title><g class="currentLayer" style=""><title>Layer 1</title><path class="cls-1" d="M43.999998779296874,113.5300033569336 v18.35 l-44,-44 L9.219998779296873,78.7300033569336 zm18.35,18.35 H43.999998779296874 l44,44 l9.18,-9.17 zm104.36,-34.78 l9.17,-9.18 L87.95999877929688,0.0000033569335897709607 l-9.17,9.18 L113.52999877929688,43.96000335693358 H92.52999877929688 L68.27999877929688,19.730003356933594 l-9.18,9.17 l15.1,15.1 H63.68999877929687 v68.23 h68.23 V101.68000335693358 l15.1,15.1 l9.18,-9.17 L131.91999877929686,83.33000335693359 v-21 zM48.58999877929688,39.370003356933594 l-9.17,9.18 l9.84,9.84 l9.17,-9.18 zm78.08,78.08 L117.52999877929688,126.62000335693358 l9.84,9.84 l9.17,-9.18 zm-97.76,-58.39 l-9.18,9.18 l24.27,24.27 V74.15000335693358 zm72.82,72.82 H83.36999877929688 l24.27,24.27 l9.18,-9.18 z" id="svg_1"/></g></svg>