<svg xmlns="http://www.w3.org/2000/svg" data-name="Layer 1" width="180" height="180" style=""><rect id="backgroundrect" width="100%" height="100%" x="0" y="0" fill="none" stroke="none"/><defs><style>.cls-1{fill:#ff6363;fill-rule:evenodd;}</style></defs><title>color_normal_logomark</title><g class="currentLayer" style=""><title>Layer 1</title><path class="cls-1" d="M177.37253726005554,89.40254092216492 l-9.17,9.18 l-34.79,-34.79 V45.44254092216491 zM89.49253726005554,1.4925409221649204 l-9.17,9.18 l34.78,34.78 h18.35 zm-19.68,19.69 l-9.18,9.17 l15.1,15.1 h18.35 zm63.64,63.64 v18.35 l15.1,15.1 l9.18,-9.17 zM128.16253726005553,118.90254092216492 l5.25,-5.26 H65.18253726005554 V45.44254092216491 l-5.26,5.26 L50.082537260055545,40.90254092216492 l-9.17,9.18 l9.84,9.84 L45.49253726005554,65.1325409221649 v10.51 l-15.1,-15.1 l-9.18,9.18 L45.49253726005554,93.99254092216492 v21 L10.71253726005554,80.23254092216493 L1.492537260055542,89.40254092216492 L89.49253726005554,177.32254092216493 l9.18,-9.17 l-34.79,-34.79 h21 l24.27,24.27 l9.18,-9.18 l-15.1,-15.1 h10.51 l5.26,-5.26 l9.84,9.84 l9.17,-9.18 z" id="svg_1"/></g></svg>